<?xml version="1.0" encoding="utf-8"?>
<!-- Generator: Adobe Illustrator 26.3.0, SVG Export Plug-In . SVG Version: 6.00 Build 0)  -->
<svg version="1.1" id="Layer_1" xmlns="http://www.w3.org/2000/svg" xmlns:xlink="http://www.w3.org/1999/xlink" x="0px" y="0px"
	 viewBox="0 0 78.1 78.1" style="enable-background:new 0 0 78.1 78.1;" xml:space="preserve">
<style type="text/css">
	.st0{fill:#196941;}
</style>
<path class="st0" d="M-0.1-0.1v78.2h78.2V-0.1H-0.1z M68.1,60.2H46.9v9.3c-1-0.2-1.8-0.3-2.7-0.5c-8.5-1.5-16.9-3-25.4-4.5
	c-2.8-0.5-5.6-1-8.4-1.5c-0.6-0.1-0.7-0.4-0.7-0.9V13.3c0-0.6,0.2-0.8,0.7-0.9c4.3-0.7,8.6-1.5,12.9-2.3c6.6-1.2,13.3-2.4,19.9-3.6
	c1.2-0.2,2.4-0.4,3.6-0.6v9.4h21.3c1.1,0,1.4,0.3,1.4,1.4c0.1,14,0.1,28,0.1,42C69.6,59.9,69.3,60.2,68.1,60.2z"/>
<path class="st0" d="M28,35.1c1.1-2.6,2.2-5.2,3.3-7.8c0.2-0.5,0.4-0.6,0.9-0.6c1.2,0,2.5-0.1,3.9-0.2c-0.1,0.3-0.2,0.5-0.3,0.7
	c-1.6,3.3-3.3,6.6-4.9,9.9c-0.2,0.5-0.2,0.8,0,1.2c1.7,3.4,3.4,6.7,5.1,10.1c0.1,0.2,0.2,0.4,0.3,0.7c-0.2,0-0.3,0-0.5,0
	c-1.3-0.1-2.6-0.1-3.9-0.3c-0.2,0-0.5-0.2-0.6-0.4c-1-2.3-1.9-4.5-2.9-6.8c-0.2-0.4-0.3-0.9-0.4-1.4c-0.1,0.1-0.1,0.1-0.2,0.1
	c-1.1,2.6-2.1,5.2-3.2,7.7c-0.1,0.2-0.4,0.4-0.6,0.4c-1.2,0-2.5-0.1-3.8-0.2c0.1-0.3,0.2-0.5,0.3-0.7c1.5-3.1,3.1-6.1,4.6-9.2
	c0.2-0.4,0.2-0.7,0-1.1c-1.4-3-2.8-6.1-4.2-9.2c-0.1-0.2-0.2-0.4-0.3-0.7c0.9-0.1,1.7-0.1,2.5-0.2c0.6,0,1.4-0.3,1.9,0
	c0.4,0.3,0.5,1.1,0.7,1.7c0.7,2,1.5,4.1,2.2,6.1C27.9,35.1,28,35.1,28,35.1z"/>
<path class="st0" d="M64.9,24.9c-3.3,0-6.5,0-9.7,0c0-1.6,0-3.3,0-4.9c0.2,0,0.4,0,0.6,0c2.8,0,5.6,0,8.4,0c0.6,0,0.7,0.2,0.7,0.7
	C64.9,22,64.9,23.4,64.9,24.9z"/>
<path class="st0" d="M55.2,40.2c0-1.7,0-3.3,0-4.9c3.2,0,6.4,0,9.7,0c0,1.6,0,3.3,0,4.9C61.7,40.2,58.5,40.2,55.2,40.2z"/>
<path class="st0" d="M55.2,50.7c0.2,0,0.4,0,0.6,0c2.8,0,5.6,0,8.4,0c0.5,0,0.7,0.1,0.7,0.7c0,1.2,0,2.5,0,3.7c0,0.2,0,0.4-0.1,0.6
	c-3.2,0-6.4,0-9.7,0C55.2,54,55.2,52.4,55.2,50.7z"/>
<path class="st0" d="M55.2,47.9c0-1.7,0-3.3,0-4.9c3.2,0,6.5,0,9.7,0c0,1.6,0,3.3,0,4.9C61.7,47.9,58.5,47.9,55.2,47.9z"/>
<path class="st0" d="M55.2,32.5c0-1.7,0-3.2,0-4.9c0.2,0,0.4-0.1,0.7-0.1c2.8,0,5.6,0,8.4,0c0.5,0,0.7,0.1,0.7,0.7
	c0,1.4,0,2.8,0,4.2C61.6,32.5,58.5,32.5,55.2,32.5z"/>
<path class="st0" d="M52.9,19.9c0,1.7,0,3.3,0,5c-2,0-4,0-6,0c0-1.6,0-3.3,0-5C48.9,19.9,50.9,19.9,52.9,19.9z"/>
<path class="st0" d="M52.9,35.3c0,1.7,0,3.3,0,5c-2,0-4,0-6.1,0c0-1.7,0-3.3,0-5C48.9,35.3,50.9,35.3,52.9,35.3z"/>
<path class="st0" d="M46.9,50.6c2,0,4,0,6,0c0,1.7,0,3.3,0,5c-2,0-4,0-6,0C46.9,54,46.9,52.4,46.9,50.6z"/>
<path class="st0" d="M46.9,43c2,0,4,0,6.1,0c0,1.7,0,3.3,0,5c-2,0-4,0-6.1,0C46.9,46.3,46.9,44.7,46.9,43z"/>
<path class="st0" d="M52.9,27.6c0,1.7,0,3.3,0,5c-2,0-4,0-6,0c0-1.6,0-3.3,0-5C48.9,27.6,50.9,27.6,52.9,27.6z"/>
</svg>
